<svg width="38" height="38" viewBox="0 0 38 38" fill="none" xmlns="http://www.w3.org/2000/svg">
<path d="M18.9734 0H18.8872C8.45608 0 0 8.45857 0 18.8927V18.979C0 29.4132 8.45608 37.8717 18.8872 37.8717H18.9734C29.4045 37.8717 37.8606 29.4132 37.8606 18.979V18.8927C37.8606 8.45857 29.4045 0 18.9734 0Z" fill="url(#paint0_linear_56_24)"/>
<path d="M24.7885 7.70459H13.0734C9.83684 7.70459 7.20386 10.3383 7.20386 13.5758V24.2966C7.20386 27.5341 9.83684 30.1678 13.0734 30.1678H24.7885C28.025 30.1678 30.658 27.5341 30.658 24.2966V13.5758C30.658 10.3383 28.025 7.70459 24.7885 7.70459ZM9.27443 13.5758C9.27443 11.4808 10.9789 9.77577 13.0734 9.77577H24.7885C26.8829 9.77577 28.5874 11.4808 28.5874 13.5758V24.2966C28.5874 26.3917 26.8829 28.0967 24.7885 28.0967H13.0734C10.9789 28.0967 9.27443 26.3917 9.27443 24.2966V13.5758Z" fill="white"/>
<path d="M18.9311 24.3961C21.9408 24.3961 24.3907 21.9468 24.3907 18.9349C24.3907 15.923 21.9421 13.4736 18.9311 13.4736C15.92 13.4736 13.4714 15.923 13.4714 18.9349C13.4714 21.9468 15.92 24.3961 18.9311 24.3961ZM18.9311 15.5461C20.8 15.5461 22.3201 17.0667 22.3201 18.9362C22.3201 20.8057 20.8 22.3262 18.9311 22.3262C17.0621 22.3262 15.542 20.8057 15.542 18.9362C15.542 17.0667 17.0621 15.5461 18.9311 15.5461Z" fill="white"/>
<path d="M24.8961 14.356C25.7065 14.356 26.3671 13.6966 26.3671 12.8845C26.3671 12.0725 25.7078 11.4131 24.8961 11.4131C24.0843 11.4131 23.425 12.0725 23.425 12.8845C23.425 13.6966 24.0843 14.356 24.8961 14.356Z" fill="white"/>
<defs>
<linearGradient id="paint0_linear_56_24" x1="5.53125" y1="32.3388" x2="32.3372" y2="5.54211" gradientUnits="userSpaceOnUse">
<stop stop-color="#FAAD4F"/>
<stop offset="0.35" stop-color="#DD2A7B"/>
<stop offset="0.62" stop-color="#9537B0"/>
<stop offset="1" stop-color="#515BD4"/>
</linearGradient>
</defs>
</svg>
