<svg width="39" height="38" viewBox="0 0 39 38" fill="none" xmlns="http://www.w3.org/2000/svg">
<path d="M19.6946 0H19.6084C9.17726 0 0.721191 8.45857 0.721191 18.8927V18.979C0.721191 29.4132 9.17726 37.8717 19.6084 37.8717H19.6946C30.1257 37.8717 38.5818 29.4132 38.5818 18.979V18.8927C38.5818 8.45857 30.1257 0 19.6946 0Z" fill="#00B0F2"/>
<path d="M7.8919 18.2905C7.94496 18.264 7.99804 18.2388 8.04977 18.2149C8.9491 17.7983 9.86037 17.4082 10.7703 17.0181C10.8194 17.0181 10.9016 16.961 10.948 16.9425C11.0183 16.912 11.0886 16.8828 11.1589 16.8522L11.5635 16.6784C11.8341 16.563 12.1034 16.4476 12.3739 16.3321C12.9138 16.1013 13.4537 15.8704 13.9935 15.6382C15.0732 15.1765 16.1543 14.7134 17.234 14.2517C18.3138 13.7899 19.3948 13.3269 20.4745 12.8651C21.5543 12.4034 22.6353 11.9403 23.715 11.4786C24.7947 11.0168 25.8758 10.5538 26.9555 10.092C27.1956 9.98855 27.4556 9.83464 27.7129 9.78953C27.9291 9.75105 28.14 9.67675 28.3576 9.63561C28.7701 9.55733 29.225 9.52549 29.6203 9.69665C29.757 9.75636 29.883 9.83995 29.9878 9.94477C30.4891 10.441 30.4188 11.2557 30.3127 11.9536C29.5739 16.8177 28.8351 21.6832 28.0949 26.5474C27.9941 27.2148 27.8562 27.9472 27.3296 28.3691C26.8839 28.7261 26.2498 28.7659 25.6994 28.6146C25.1489 28.462 24.6634 28.1423 24.1872 27.8278C22.2122 26.5195 20.2358 25.2113 18.2607 23.903C17.7911 23.5925 17.2685 23.1865 17.2738 22.6226C17.2765 22.283 17.4794 21.9804 17.6863 21.7111C19.4028 19.4714 21.8792 17.9323 23.7217 15.7961C23.9816 15.4949 24.1859 14.9509 23.8291 14.7771C23.6169 14.6736 23.3728 14.8142 23.1791 14.9482C20.7438 16.64 18.3098 18.333 15.8744 20.0247C15.0799 20.5767 14.2469 21.1445 13.2892 21.2799C12.4323 21.402 11.5702 21.1631 10.7411 20.919C10.0461 20.7147 9.35232 20.505 8.66124 20.2887C8.29382 20.1746 7.91446 20.0512 7.6306 19.7925C7.34674 19.5338 7.18361 19.0986 7.35472 18.7536C7.46216 18.5373 7.67042 18.4007 7.88928 18.2892L7.8919 18.2905Z" fill="#FEFFFC"/>
</svg>
