<svg width="39" height="38" viewBox="0 0 39 38" fill="none" xmlns="http://www.w3.org/2000/svg">
<path d="M19.834 0H19.7478C9.31668 0 0.860596 8.45857 0.860596 18.8927V18.979C0.860596 29.4132 9.31668 37.8717 19.7478 37.8717H19.834C30.2651 37.8717 38.7212 29.4132 38.7212 18.979V18.8927C38.7212 8.45857 30.2651 0 19.834 0Z" fill="black"/>
<path d="M29.3895 15.0405V18.6163C28.7647 18.5552 27.9529 18.4133 27.0549 18.0842C25.8823 17.6543 25.0095 17.0665 24.4379 16.6114V23.8387L24.4233 23.8161C24.4325 23.9594 24.4379 24.1054 24.4379 24.2527C24.4379 27.8417 21.5184 30.7634 17.929 30.7634C14.3397 30.7634 11.4202 27.8417 11.4202 24.2527C11.4202 20.6636 14.3397 17.7406 17.929 17.7406C18.2805 17.7406 18.6254 17.7684 18.9623 17.8228V21.3469C18.6387 21.2315 18.2911 21.1691 17.929 21.1691C16.2298 21.1691 14.8464 22.5517 14.8464 24.2527C14.8464 25.9537 16.2298 27.3362 17.929 27.3362C19.6282 27.3362 21.0117 25.9523 21.0117 24.2527C21.0117 24.189 21.0103 24.1253 21.0064 24.0616V10.0171H24.5785C24.5917 10.3196 24.6037 10.6248 24.6169 10.9273C24.6408 11.523 24.853 12.0949 25.2231 12.5633C25.6569 13.1139 26.2975 13.7534 27.1968 14.2643C28.0391 14.7419 28.8297 14.9463 29.3895 15.0431V15.0405Z" fill="#FF004F"/>
<path d="M28.1612 12.1379V15.7137C27.5364 15.6526 26.7246 15.5107 25.8266 15.1816C24.6541 14.7517 23.7813 14.1639 23.2096 13.7088V20.9361L23.195 20.9135C23.2043 21.0568 23.2096 21.2028 23.2096 21.35C23.2096 24.9391 20.2901 27.8608 16.7007 27.8608C13.1114 27.8608 10.1919 24.9391 10.1919 21.35C10.1919 17.761 13.1114 14.838 16.7007 14.838C17.0522 14.838 17.3971 14.8658 17.734 14.9202V18.4443C17.4104 18.3288 17.0629 18.2665 16.7007 18.2665C15.0016 18.2665 13.6181 19.649 13.6181 21.35C13.6181 23.051 15.0016 24.4336 16.7007 24.4336C18.3999 24.4336 19.7834 23.0497 19.7834 21.35C19.7834 21.2864 19.7821 21.2227 19.7781 21.159V7.11182H23.3502C23.3634 7.41433 23.3754 7.71951 23.3886 8.02202C23.4125 8.61777 23.6248 9.18963 23.9948 9.65801C24.4286 10.2086 25.0692 10.8482 25.9686 11.359C26.8109 11.8353 27.6014 12.041 28.1612 12.1379Z" fill="#00F7EF"/>
<path d="M28.9427 13.7006V17.2764C28.3179 17.2154 27.5061 17.0734 26.6081 16.7444C25.4356 16.3145 24.5628 15.7267 23.9911 15.2716V22.4988L23.9765 22.4763C23.9858 22.6196 23.9911 22.7655 23.9911 22.9128C23.9911 26.5019 21.0716 29.4236 17.4822 29.4236C13.8929 29.4236 10.9734 26.5019 10.9734 22.9128C10.9734 19.3237 13.8929 16.4007 17.4822 16.4007C17.8337 16.4007 18.1786 16.4286 18.5155 16.483V20.0071C18.1919 19.8916 17.8443 19.8293 17.4822 19.8293C15.7831 19.8293 14.3996 21.2118 14.3996 22.9128C14.3996 24.6138 15.7831 25.9964 17.4822 25.9964C19.1814 25.9964 20.5649 24.6125 20.5649 22.9128C20.5649 22.8491 20.5636 22.7854 20.5596 22.7218V8.67725H24.1317C24.1449 8.97976 24.1569 9.28493 24.1701 9.58745C24.194 10.1832 24.4062 10.7551 24.7763 11.2234C25.2101 11.7741 25.8507 12.4136 26.7501 12.9244C27.5924 13.4008 28.3829 13.6064 28.9427 13.7033V13.7006Z" fill="white"/>
</svg>
